<?xml version="1.0" encoding="utf-8"?>
<!-- Generator: Adobe Illustrator 21.0.0, SVG Export Plug-In . SVG Version: 6.00 Build 0)  -->
<svg version="1.1" id="Layer_1" xmlns="http://www.w3.org/2000/svg" xmlns:xlink="http://www.w3.org/1999/xlink" x="0px" y="0px"
	 width="1400px" height="980px" viewBox="0 0 1400 980" style="enable-background:new 0 0 1400 980;" xml:space="preserve">
<style type="text/css">
	.st0{fill-rule:evenodd;clip-rule:evenodd;fill:#FFC96F;}
	.st1{fill-rule:evenodd;clip-rule:evenodd;fill:#A63335;}
	.st2{fill-rule:evenodd;clip-rule:evenodd;fill:#FFD68F;}
	.st3{fill-rule:evenodd;clip-rule:evenodd;fill:#BD4F51;}
	.st4{fill-rule:evenodd;clip-rule:evenodd;fill:#3E2F42;}
	.st5{fill-rule:evenodd;clip-rule:evenodd;fill:#5E4D63;}
	.st6{fill-rule:evenodd;clip-rule:evenodd;fill:#342738;}
	.st7{fill-rule:evenodd;clip-rule:evenodd;fill:#2F2233;}
	.st8{fill-rule:evenodd;clip-rule:evenodd;fill:#342638;}
	.st9{fill-rule:evenodd;clip-rule:evenodd;fill:#FFFFFF;}
	.st10{fill-rule:evenodd;clip-rule:evenodd;fill:#FF9267;}
	.st11{fill-rule:evenodd;clip-rule:evenodd;fill:#796E7D;}
	.st12{fill-rule:evenodd;clip-rule:evenodd;fill:#5C4B61;}
	.st13{fill-rule:evenodd;clip-rule:evenodd;fill:#AA1E21;}
	.st14{fill-rule:evenodd;clip-rule:evenodd;fill:#821719;}
	.st15{fill-rule:evenodd;clip-rule:evenodd;fill:#4F3E54;}
	.st16{fill-rule:evenodd;clip-rule:evenodd;fill:#2B1A30;}
</style>
<g>
	<rect y="0.7" class="st0" width="1398" height="978.6"/>
	<path class="st1" d="M1070.7,979.3H1398V0.7H836.5C836.5,363.1,871.1,670.4,1070.7,979.3z"/>
	<path class="st1" d="M0,979.3h327.4C526.9,670.4,561.6,363.1,561.6,0.7H0V979.3z"/>
	<polygon class="st2" points="592.6,0.7 415.8,0.7 290.3,0.7 37.4,830.2 415.8,830.2 592.6,830.2 971.1,830.2 718.2,0.7 	"/>
	<path class="st3" d="M290.3,0.7L37.4,830.2h374C537.1,570.2,561.6,304.8,561.6,0.7H415.8H290.3z"/>
	<rect y="863" class="st4" width="1400" height="116.3"/>
	<rect x="2" y="830.2" class="st5" width="1396.1" height="32.8"/>
	<rect x="53.5" y="863" class="st6" width="1293" height="30.4"/>
	<polygon class="st6" points="366.2,828 399.1,832.4 407.1,774.3 374.2,769.8 	"/>
	
		<rect x="490.8" y="762.2" transform="matrix(0.9627 -0.2705 0.2705 0.9627 -196.6316 166.9585)" class="st6" width="33.2" height="69.3"/>
	<path class="st4" d="M366.2,575.3c-2.9-0.3-5.4-0.4-7.6-0.4H254.4v41.6h104.2c1.8,0,3,0,3.7,0.1c6.7,0.6,11,3.4,13.5,7.5
		c3.6,5.9,5.1,14.9,5.1,25.4c0,4.2-0.2,8-0.5,11.4l-14,146.6l41.3,3.9l14-146.6c0.5-5.7,0.8-10.8,0.8-15.3
		c0-17.5-3.3-33.9-11.5-47.1C401.8,587.3,387.4,577.3,366.2,575.3z"/>
	<path class="st7" d="M1251,400.5c-26.7,0-53.5,0-80.2,0c-125.9,0-150.5-19.2-150.5-66v-20.7c0-47.5-35.7-85.8-88.2-85.8
		c-73.9,0-266.4,0-340.3,0c-10.5,0-19,8.6-19,19v257.2c0,10.5,8.6,19,19,19H1251c10.5,0,19-8.6,19-19c0-50.4,0-34.4,0-84.8
		C1270.1,409.1,1261.5,400.5,1251,400.5z"/>
	<path class="st8" d="M1251,400.5c-26.7,0-53.5,0-80.2,0c-125.9,0-150.5-19.2-150.5-66v-20.7c0-47.5-35.7-85.8-88.2-85.8
		c-73.9,0-266.4,0-340.3,0c-10.5,0-19,8.6-19,19v37.7c78.9,70.4,242.4,133.3,436.6,160.1c93.8,12.9,182.9,15.8,260.8,10.1v-35.4
		C1270.1,409.1,1261.5,400.5,1251,400.5z"/>
	<path class="st4" d="M237.8,542.6v-33.3v-62.9l-54.9,54.9L128,446.4v62.9V522v53.6c0,20.9,11.1,40.8,41.4,40.8h103.8v-35.2
		C244.9,581.3,237.8,567.5,237.8,542.6z"/>
	<path class="st4" d="M415.2,457.2c-30.9-0.2-57.8-0.3-73.1-56.9c-6.2-23-39.3-18.2-32.1,8.6c21.9,81,60.6,81.2,105.1,81.4
		c27.4,0.2,57.7,0.3,85.3,33l25.4-21.5C488.3,457.6,449.9,457.4,415.2,457.2z"/>
	<path class="st9" d="M254.4,389.9v226.5C417.2,616.4,417.2,389.9,254.4,389.9z"/>
	<rect x="254.4" y="350" class="st10" width="23.3" height="53.2"/>
	<path class="st11" d="M1114.1,485.7H584.8c-6.6,0-12,5.4-12,12v51.5c0,6.6-5.4,12-12,12c-36.3,0-72.6,0-108.9,0
		c-6.6,0-12,5.4-12,12c0,18.6,0,37.3,0,55.9c0,6.6,5.4,12,12,12h662.3c6.6,0,12-5.4,12-12c0-43.8,0-87.6,0-131.4
		C1126.1,491.1,1120.7,485.7,1114.1,485.7z"/>
	<path class="st12" d="M439.8,629.1c0,6.6,5.4,12,12,12h662.3c6.6,0,12-5.4,12-12v-26.4H439.8V629.1z"/>
	<path class="st4" d="M1258.1,485.7H728.7c-6.6,0-12,5.4-12,12v51.5c0,6.6-5.4,12-12,12c-36.3,0-72.6,0-108.9,0c-6.6,0-12,5.4-12,12
		c0,18.6,0,37.3,0,55.9c0,6.6,5.4,12,12,12h662.3c6.6,0,12-5.4,12-12c0-43.8,0-87.6,0-131.4C1270.1,491.1,1264.7,485.7,1258.1,485.7
		z"/>
	<path class="st12" d="M728.7,485.7c-6.6,0-12,5.4-12,12v51.5c0,6.6-5.4,12-12,12c-36.3,0-72.6,0-108.9,0c-6.6,0-12,5.4-12,12
		c0,18.6,0,37.3,0,55.9c0,6.6,5.4,12,12,12h317.6L866,485.7H728.7z"/>
	<g>
		<path class="st4" d="M550.8,641.1H516l5.7,43.4c0.8,5.8,3.3,10.8,7.4,10.8h32.1v0H583c4,0,6.6-5,7.4-10.8l5.7-43.4L550.8,641.1
			L550.8,641.1z"/>
		<polygon class="st4" points="539.4,670.4 547.8,817.3 556,817.3 564.3,817.3 572.6,670.4 556,670.4 		"/>
		<path class="st4" d="M563,818.6h-13.9c-3.2,0-5.8,2.6-5.8,5.8c0,3.2,2.6,5.8,5.8,5.8H563c3.2,0,5.8-2.6,5.8-5.8
			C568.8,821.2,566.2,818.6,563,818.6z"/>
		<path class="st4" d="M567.1,801.6H545c-5.1,0-9.2,4.1-9.2,9.2c0,5,4.1,9.2,9.2,9.2h22.1c5,0,9.2-4.1,9.2-9.2
			C576.2,805.8,572.1,801.6,567.1,801.6z"/>
		<polygon class="st4" points="993.2,670.4 1001.6,817.3 1009.9,817.3 1018.1,817.3 1026.5,670.4 1009.9,670.4 		"/>
		<path class="st4" d="M1016.8,818.6h-13.9c-3.2,0-5.8,2.6-5.8,5.8c0,3.2,2.6,5.8,5.8,5.8h13.9c3.2,0,5.8-2.6,5.8-5.8
			C1022.6,821.2,1020,818.6,1016.8,818.6z"/>
		<path class="st4" d="M1020.9,801.6h-22.1c-5.1,0-9.2,4.1-9.2,9.2c0,5,4.1,9.2,9.2,9.2h22.1c5,0,9.2-4.1,9.2-9.2
			C1030.1,805.8,1025.9,801.6,1020.9,801.6z"/>
		<path class="st4" d="M1004.6,641.1h-34.8l5.7,43.4c0.8,5.8,3.3,10.8,7.4,10.8h32.1v0h21.7c4,0,6.6-5,7.4-10.8l5.7-43.4
			L1004.6,641.1L1004.6,641.1z"/>
		<path class="st4" d="M694.8,641.1H660l5.7,43.4c0.8,5.8,3.3,10.8,7.4,10.8h32.1v0h21.7c4,0,6.6-5,7.4-10.8l5.7-43.4L694.8,641.1
			L694.8,641.1z"/>
		<polygon class="st4" points="683.4,670.4 691.8,817.3 700,817.3 708.2,817.3 716.6,670.4 700,670.4 		"/>
		<path class="st4" d="M707,818.6H693c-3.2,0-5.8,2.6-5.8,5.8c0,3.2,2.6,5.8,5.8,5.8H707c3.2,0,5.8-2.6,5.8-5.8
			C712.8,821.2,710.2,818.6,707,818.6z"/>
		<path class="st4" d="M711,801.6H689c-5.1,0-9.2,4.1-9.2,9.2c0,5,4.1,9.2,9.2,9.2H711c5,0,9.2-4.1,9.2-9.2
			C720.2,805.8,716.1,801.6,711,801.6z"/>
		<polygon class="st4" points="1137.2,670.4 1145.6,817.3 1153.8,817.3 1162,817.3 1170.4,670.4 1153.8,670.4 		"/>
		<path class="st4" d="M1160.8,818.6h-13.9c-3.2,0-5.8,2.6-5.8,5.8c0,3.2,2.6,5.8,5.8,5.8h13.9c3.2,0,5.8-2.6,5.8-5.8
			C1166.6,821.2,1164,818.6,1160.8,818.6z"/>
		<path class="st4" d="M1164.9,801.6h-22.1c-5.1,0-9.2,4.1-9.2,9.2c0,5,4.1,9.2,9.2,9.2h22.1c5.1,0,9.2-4.1,9.2-9.2
			C1174,805.8,1169.9,801.6,1164.9,801.6z"/>
		<path class="st4" d="M1148.6,641.1h-34.8l5.7,43.4c0.8,5.8,3.3,10.8,7.4,10.8h32.1v0h21.7c4,0,6.6-5,7.4-10.8l5.7-43.4
			L1148.6,641.1L1148.6,641.1z"/>
	</g>
	<path class="st10" d="M315,270.4L315,270.4c-17.5-6.8-37.4,2-44.2,19.5l-23.9,61.6l31.8,12.4c17.5,6.8,37.4-2,44.2-19.5l11.5-29.8
		C341.3,297.1,332.5,277.2,315,270.4z"/>
	<path class="st4" d="M349.5,258.9c-7.7-0.2-14.9,1.3-20.6,4.2l-25.7-10c-18.3-7.1-39.1,2.1-46.2,20.4l-4.4,11.3
		c-0.9-0.7-1.9-1.4-2.9-2.1c-10.1-6.4-21.7-6.6-27.4-0.9l11.9,7.4c-3-0.5-6.3-0.5-9.7,0.1c-10.8,1.8-18.8,8.7-19.3,16l16.5-2.8
		c-3.3,2.1-6.5,5.2-9,9.1c-5.9,9.2-6.2,19.8-1.1,25.1l3.7-5.8c-0.9,13,6.7,25.8,19.5,30.7c15.7,6.1,33.5-1.8,39.6-17.5l8.7-22.4
		c17.5,5.1,36.5-4.1,43.2-21.4l1.5-3.9l9,31.6c7.8-4.4,11.2-16.9,7.6-29.7c-0.1-0.4-0.2-0.7-0.3-1.1l18.2,17.2
		c4.5-7.8,1-20.2-8.7-29.4c-3.4-3.2-7.1-5.6-10.8-7.2l39.2,1.2C379.6,268.1,366.1,259.4,349.5,258.9z"/>
	<path class="st13" d="M313.6,369.8h-54.9c-2.3,0-4.2,1.9-4.2,4.2v20.9c0,2.3,1.9,4.2,4.2,4.2h54.9c2.3,0,4.2-1.9,4.2-4.2V374
		C317.8,371.6,315.9,369.8,313.6,369.8z"/>
	<path class="st14" d="M309.1,394.3c22.1,14.2,42.7,45.8,40.3,71.9l28.7,7.4C390.1,438,352.5,386.8,309.1,394.3z"/>
	<path class="st13" d="M296.9,392c18.9,18.2,33,53.2,25.7,78.3l26.7,12.8C368,450.6,341,393,296.9,392z"/>
	<path class="st15" d="M333.1,616.4h-29.7h-29.7c-18.5,0-33.7,15.2-33.7,33.7v20.5c0,7.3,5.9,13.2,13.2,13.2h50.2h50.2
		c7.3,0,13.2-5.9,13.2-13.2v-20.5C366.8,631.6,351.6,616.4,333.1,616.4z"/>
	<path class="st4" d="M268,616.4h-29.7h-29.7c-18.5,0-33.7,15.2-33.7,33.7v20.5c0,7.3,5.9,13.2,13.2,13.2h50.2h50.2
		c7.3,0,13.2-5.9,13.2-13.2v-20.5C301.7,631.6,286.5,616.4,268,616.4z"/>
	<path class="st6" d="M262.2,703.3v127h17.2v-127c16-2,29.3-9.4,35.7-19.4h-88.6C232.9,693.8,246.2,701.3,262.2,703.3z"/>
	<path class="st15" d="M345.4,814.7H196.2c-4.3,0-7.8,3.5-7.8,7.8c0,4.3,3.5,7.8,7.8,7.8h149.2c4.3,0,7.8-3.5,7.8-7.8
		C353.2,818.2,349.7,814.7,345.4,814.7z"/>
	<path class="st15" d="M490.6,657.3c-6.2-22.6-16.3-44-31.5-59.3c-14.3-14.3-32.6-23.2-55.6-23.2h-149v41.6h149
		c10.8,0,19.4,4.2,26.2,11c9.8,9.8,16.6,24.6,21,40.7l-0.1,0l39.9,146.6l40.1-10.9L490.6,657.3L490.6,657.3z"/>
	<path class="st16" d="M525.8,810.4c-22.8,0-35.2,10.5-35.2,23.4h82.6C573.2,820.9,548.6,810.4,525.8,810.4z"/>
	<path class="st10" d="M532.6,501.9c-5.3-7.8-15.9-10-23.7-4.8l-7.8,5.1c-7.8,5.1-9.9,15.7-4.7,23.5l10.8,16.1
		c1.4,2,3.6,3.1,5.9,3.2l0.3,0.5l25.6-16.9c3.6-4.5,4-11,0.6-16.2L532.6,501.9z"/>
	<path class="st15" d="M296.5,400.5l8.4-23.9h-50.5v13.3v30.2v196.3C361.9,616.4,375.9,445.3,296.5,400.5z"/>
	<path class="st4" d="M296.5,400.5l-14.8,13l36.6,31.6l-6.6,19.7l35,49.7C350,469,333.2,421.2,296.5,400.5z"/>
	<path class="st4" d="M378,493.5c-29.6-0.6-56.3-1.2-65.7-32.9l-18.6-62.1c-5.8-21.8-38.2-14.3-31.9,9.5l18.7,62
		c16.4,55,54.6,55.8,96.9,56.7c27.9,0.6,58.2,1.2,79.6,25l24.7-22.2C450.7,495,412.9,494.2,378,493.5z"/>
	<path class="st10" d="M487.7,528.8c-5.3-7.8-15.9-10-23.7-4.8l-7.9,5.1c-7.8,5.1-9.9,15.7-4.7,23.5l10.8,16.1
		c1.4,2,3.6,3.1,5.9,3.2l0.3,0.5l25.6-16.9c3.6-4.5,4-11,0.6-16.2L487.7,528.8z"/>
	<path class="st16" d="M401.5,806.8c-22.8,0-35.2,10.5-35.2,23.4h82.6C448.9,817.3,424.3,806.8,401.5,806.8z"/>
	<path class="st15" d="M789.4,313.5c-4.5,0-7.6,3.7-6.9,8.2l26.1,164H825l-26.1-164C798.2,317.2,793.9,313.5,789.4,313.5z"/>
	<path class="st2" d="M1253.1,613.6H600.7c-2.4,0-4.4,2-4.4,4.4c0,2.4,2,4.4,4.4,4.4h652.4c2.4,0,4.4-2,4.4-4.4
		C1257.5,615.6,1255.5,613.6,1253.1,613.6z"/>
	<ellipse class="st2" cx="926.9" cy="582.4" rx="37.4" ry="8.1"/>
</g>
</svg>
